<svg xmlns="http://www.w3.org/2000/svg" width="40" height="40" viewBox="0 0 40 40">
    <g fill="#DF1720" fill-rule="nonzero">
        <path d="M25.891 10.613h-11.89a3.446 3.446 0 0 0-3.441 3.442v11.89A3.446 3.446 0 0 0 14 29.387h11.89a3.446 3.446 0 0 0 3.442-3.442v-11.89a3.446 3.446 0 0 0-3.442-3.442zM19.946 26.18a6.187 6.187 0 0 1-6.18-6.18 6.187 6.187 0 0 1 6.18-6.18 6.187 6.187 0 0 1 6.18 6.18 6.188 6.188 0 0 1-6.18 6.18zm6.38-11.082a1.464 1.464 0 0 1-1.463-1.462c0-.807.656-1.463 1.462-1.463.807 0 1.463.656 1.463 1.463 0 .806-.656 1.462-1.463 1.462z"/>
        <path d="M19.946 16.432A3.573 3.573 0 0 0 16.377 20a3.574 3.574 0 0 0 3.57 3.569 3.573 3.573 0 0 0 3.568-3.57c0-1.966-1.601-3.567-3.569-3.567z"/>
        <path d="M19.946 0C8.931 0 0 8.93 0 19.946c0 11.016 8.93 19.946 19.946 19.946 11.016 0 19.946-8.93 19.946-19.946C39.892 8.931 30.962 0 19.946 0zm11.998 25.945a6.06 6.06 0 0 1-6.053 6.053h-11.89a6.06 6.06 0 0 1-6.053-6.053v-11.89a6.06 6.06 0 0 1 6.053-6.053h11.89a6.06 6.06 0 0 1 6.053 6.053v11.89z"/>
    </g>
</svg>
