<svg xmlns="http://www.w3.org/2000/svg" width="58" height="58" viewBox="0 0 58 58">
    <g fill="none" fill-rule="evenodd">
        <circle cx="29" cy="29" r="29" fill="#DF1720"/>
        <g fill="#FFF" fill-rule="nonzero">
            <path d="M38.352 22H18.473a.47.47 0 0 0-.473.469V36.53c0 .26.212.469.473.469h19.879a.47.47 0 0 0 .473-.469V22.47a.47.47 0 0 0-.473-.469zm-.474 12.929l-5.863-5.807-.669.663 6.338 6.278H19.141l6.338-6.278-.67-.663-5.862 5.807V22.937h18.931V34.93z"/>
            <path d="M36.398 22.75l-8.357 8.596-8.358-8.596h-.94v.386l8.969 9.224a.455.455 0 0 0 .657 0l8.969-9.224v-.386h-.94z"/>
        </g>
    </g>
</svg>
